<svg id="visual" viewBox="0 0 1200 720" width="1200" height="720" xmlns="http://www.w3.org/2000/svg" xmlns:xlink="http://www.w3.org/1999/xlink" version="1.1"><rect x="0" y="0" width="1200" height="720" fill="#931C1C"></rect><path d="M771 720L709 617L877 514L804 411L830 309L708 206L879 103L787 0L1200 0L1200 103L1200 206L1200 309L1200 411L1200 514L1200 617L1200 720Z" fill="#f5730a"></path><path d="M891 720L888 617L812 514L866 411L799 309L868 206L872 103L860 0L1200 0L1200 103L1200 206L1200 309L1200 411L1200 514L1200 617L1200 720Z" fill="#da5b09"></path><path d="M917 720L924 617L965 514L929 411L1022 309L921 206L906 103L974 0L1200 0L1200 103L1200 206L1200 309L1200 411L1200 514L1200 617L1200 720Z" fill="#be4407"></path><path d="M1066 720L975 617L1071 514L987 411L1052 309L1068 206L1072 103L1061 0L1200 0L1200 103L1200 206L1200 309L1200 411L1200 514L1200 617L1200 720Z" fill="#a32d04"></path><path d="M1143 720L1114 617L1081 514L1143 411L1063 309L1059 206L1051 103L1070 0L1200 0L1200 103L1200 206L1200 309L1200 411L1200 514L1200 617L1200 720Z" fill="#871400"></path></svg>