<svg id="visual" viewBox="0 0 1200 720" width="1200" height="720" xmlns="http://www.w3.org/2000/svg" xmlns:xlink="http://www.w3.org/1999/xlink" version="1.1"><rect x="0" y="0" width="1200" height="720" fill="#660708"></rect><path d="M841 720L898 617L744 514L895 411L777 309L834 206L806 103L818 0L1200 0L1200 103L1200 206L1200 309L1200 411L1200 514L1200 617L1200 720Z" fill="#b1a7a6"></path><path d="M860 720L944 617L844 514L822 411L958 309L931 206L809 103L957 0L1200 0L1200 103L1200 206L1200 309L1200 411L1200 514L1200 617L1200 720Z" fill="#888082"></path><path d="M1002 720L899 617L947 514L1011 411L941 309L985 206L950 103L1008 0L1200 0L1200 103L1200 206L1200 309L1200 411L1200 514L1200 617L1200 720Z" fill="#5f5b60"></path><path d="M1059 720L1047 617L1062 514L1037 411L1066 309L1012 206L1075 103L1063 0L1200 0L1200 103L1200 206L1200 309L1200 411L1200 514L1200 617L1200 720Z" fill="#38393e"></path><path d="M1118 720L1116 617L1090 514L1120 411L1115 309L1056 206L1145 103L1129 0L1200 0L1200 103L1200 206L1200 309L1200 411L1200 514L1200 617L1200 720Z" fill="#161a1d"></path></svg>