<svg id="visual" viewBox="0 0 1200 720" width="1200" height="720" xmlns="http://www.w3.org/2000/svg" xmlns:xlink="http://www.w3.org/1999/xlink" version="1.1"><rect x="0" y="0" width="1200" height="720" fill="#660708"></rect><path d="M0 503L171 537L343 445L514 535L686 465L857 499L1029 482L1200 489L1200 721L1029 721L857 721L686 721L514 721L343 721L171 721L0 721Z" fill="#b1a7a6"></path><path d="M0 514L171 565L343 505L514 492L686 573L857 557L1029 484L1200 573L1200 721L1029 721L857 721L686 721L514 721L343 721L171 721L0 721Z" fill="#888082"></path><path d="M0 600L171 538L343 566L514 605L686 563L857 589L1029 568L1200 603L1200 721L1029 721L857 721L686 721L514 721L343 721L171 721L0 721Z" fill="#5f5b60"></path><path d="M0 634L171 626L343 635L514 620L686 638L857 606L1029 643L1200 636L1200 721L1029 721L857 721L686 721L514 721L343 721L171 721L0 721Z" fill="#38393e"></path><path d="M0 669L171 668L343 652L514 670L686 668L857 632L1029 686L1200 676L1200 721L1029 721L857 721L686 721L514 721L343 721L171 721L0 721Z" fill="#161a1d"></path></svg>